<svg xmlns="http://www.w3.org/2000/svg" version="1.1" xmlns:xlink="http://www.w3.org/1999/xlink" viewBox="0 0 200 200"><rect width="200" height="200" fill="url('#gradient')"></rect><defs><linearGradient id="gradient" gradientTransform="rotate(45 0.5 0.5)"><stop offset="0%" stop-color="#000000"></stop><stop offset="100%" stop-color="#727070"></stop></linearGradient></defs><g><g fill="#ffffff" transform="matrix(6.55709711846318,0,0,6.55709711846318,7.118683447514684,142.59236593612866)" stroke="#525050" stroke-width="0.2"><path d="M10.17 0L6.88 0Q6.70-0.32 6.56-0.95L6.56-0.95Q5.65 0.20 4.02 0.20L4.02 0.20Q2.53 0.20 1.48-0.71Q0.44-1.61 0.44-2.98L0.44-2.98Q0.44-4.70 1.71-5.58Q2.98-6.46 5.40-6.46L5.40-6.46L6.42-6.46L6.42-7.01Q6.42-8.47 5.16-8.47L5.16-8.47Q3.98-8.47 3.98-7.31L3.98-7.31L0.69-7.31Q0.69-8.85 2.00-9.80Q3.30-10.76 5.32-10.76Q7.34-10.76 8.52-9.78Q9.69-8.79 9.72-7.07L9.72-7.07L9.72-2.39Q9.74-0.94 10.17-0.17L10.17-0.17L10.17 0ZM4.81-2.15L4.81-2.15Q5.43-2.15 5.83-2.41Q6.24-2.68 6.42-3.01L6.42-3.01L6.42-4.70L5.46-4.70Q3.74-4.70 3.74-3.15L3.74-3.15Q3.74-2.71 4.04-2.43Q4.35-2.15 4.81-2.15ZM12.08-13.19L15.37-13.19L15.37-10.57L17.11-10.57L17.11-8.28L15.37-8.28L15.37-3.45Q15.37-2.85 15.59-2.62Q15.80-2.38 16.44-2.38L16.44-2.38Q16.92-2.38 17.26-2.44L17.26-2.44L17.26-0.09Q16.37 0.20 15.40 0.20L15.40 0.20Q13.70 0.20 12.89-0.61Q12.08-1.41 12.08-3.04L12.08-3.04L12.08-8.28L10.73-8.28L10.73-10.57L12.08-10.57L12.08-13.19ZM17.71-4.82L17.70-5.38Q17.70-6.96 18.31-8.20Q18.93-9.43 20.08-10.10Q21.23-10.76 22.78-10.76L22.78-10.76Q25.16-10.76 26.52-9.29Q27.89-7.82 27.89-5.29L27.89-5.29L27.89-5.18Q27.89-2.71 26.52-1.25Q25.15 0.20 22.80 0.20L22.80 0.20Q20.55 0.20 19.18-1.16Q17.81-2.51 17.71-4.82L17.71-4.82ZM21.00-5.77L20.99-5.18Q20.99-3.71 21.45-3.03Q21.90-2.34 22.80-2.34L22.80-2.34Q24.56-2.34 24.60-5.05L24.60-5.05L24.60-5.38Q24.60-8.22 22.78-8.22L22.78-8.22Q21.13-8.22 21.00-5.77L21.00-5.77Z"></path></g></g></svg>